{
    "accessors" : [
        {
            "bufferView" : 0,
            "componentType" : 5123,
            "count" : 7056,
            "max" : [
                4621
            ],
            "min" : [
                0
            ],
            "type" : "SCALAR"
        },
        {
            "bufferView" : 1,
            "componentType" : 5126,
            "count" : 4622,
            "max" : [
                1.0395344495773315,
                5.358150482177734,
                0.3399698734283447
            ],
            "min" : [
                -1.1143525838851929,
                -5.85671854019165,
                -3.4785706996917725
            ],
            "type" : "VEC3"
        },
        {
            "bufferView" : 2,
            "componentType" : 5126,
            "count" : 4622,
            "max" : [
                0.9999789595603943,
                1.0,
                1.0
            ],
            "min" : [
                -0.999982476234436,
                -1.0,
                -1.0
            ],
            "type" : "VEC3"
        },
        {
            "bufferView" : 3,
            "componentType" : 5126,
            "count" : 4622,
            "max" : [
                1.0,
                1.0,
                0.9999971985816956,
                1.0
            ],
            "min" : [
                -1.0,
                -1.0,
                -0.9999789595603943,
                -1.0
            ],
            "type" : "VEC4"
        },
        {
            "bufferView" : 4,
            "componentType" : 5126,
            "count" : 4622,
            "max" : [
                1.0,
                0.9999999701976776
            ],
            "min" : [
                2.9802322387695312e-08,
                0.0
            ],
            "type" : "VEC2"
        }
    ],
    "asset" : {
        "copyright" : "Dodecha",
        "generator" : "Khronos Blender glTF 2.0 exporter",
        "version" : "2.0"
    },
    "bufferViews" : [
        {
            "buffer" : 0,
            "byteLength" : 14112,
            "byteOffset" : 0,
            "target" : 34963
        },
        {
            "buffer" : 0,
            "byteLength" : 55464,
            "byteOffset" : 14112,
            "target" : 34962
        },
        {
            "buffer" : 0,
            "byteLength" : 55464,
            "byteOffset" : 69576,
            "target" : 34962
        },
        {
            "buffer" : 0,
            "byteLength" : 73952,
            "byteOffset" : 125040,
            "target" : 34962
        },
        {
            "buffer" : 0,
            "byteLength" : 36976,
            "byteOffset" : 198992,
            "target" : 34962
        }
    ],
    "buffers" : [
        {
            "byteLength" : 235968,
            "uri" : "KNM-Helge.bin"
        }
    ],
    "images" : [
        {
            "mimeType" : "image/png",
            "name" : "KNM-Helge",
            "uri" : "data:image/png;base64,"
        }
    ],
    "materials" : [
        {
            "alphaMode" : "BLEND",
            "name" : "Skip",
            "pbrMetallicRoughness" : {
                "baseColorTexture" : {
                    "index" : 0
                }
            }
        }
    ],
    "meshes" : [
        {
            "name" : "Cube.001",
            "primitives" : [
                {
                    "attributes" : {
                        "NORMAL" : 2,
                        "POSITION" : 1,
                        "TANGENT" : 3,
                        "TEXCOORD_0" : 4
                    },
                    "indices" : 0,
                    "material" : 0
                }
            ]
        }
    ],
    "nodes" : [
        {
            "name" : "Camera",
            "rotation" : [
                0.483536034822464,
                0.33687159419059753,
                -0.20870360732078552,
                0.7804827094078064
            ],
            "translation" : [
                7.481131553649902,
                5.34366512298584,
                6.5076398849487305
            ]
        },
        {
            "mesh" : 0,
            "name" : "Ship",
            "rotation" : [
                0.7071068286895752,
                0.0,
                1.5700928288594812e-16,
                0.7071068286895752
            ]
        }
    ],
    "samplers" : [
        {}
    ],
    "scene" : 0,
    "scenes" : [
        {
            "name" : "Scene",
            "nodes" : [
                1,
                0
            ]
        }
    ],
    "textures" : [
        {
            "sampler" : 0,
            "source" : 0
        }
    ]
}
