{
    "accessors" : [
        {
            "bufferView" : 0,
            "componentType" : 5123,
            "count" : 6912,
            "max" : [
                4605
            ],
            "min" : [
                0
            ],
            "type" : "SCALAR"
        },
        {
            "bufferView" : 1,
            "componentType" : 5126,
            "count" : 4606,
            "max" : [
                3.270435333251953,
                3.5772035121917725,
                7.7107253074646
            ],
            "min" : [
                -3.258023262023926,
                -1.5059387683868408,
                -7.33153772354126
            ],
            "type" : "VEC3"
        },
        {
            "bufferView" : 2,
            "componentType" : 5126,
            "count" : 4606,
            "max" : [
                1.0,
                1.0,
                1.0
            ],
            "min" : [
                -1.0,
                -0.9987130761146545,
                -1.0
            ],
            "type" : "VEC3"
        },
        {
            "bufferView" : 3,
            "componentType" : 5126,
            "count" : 4606,
            "max" : [
                0.9987457990646362,
                1.0,
                1.0,
                1.0
            ],
            "min" : [
                -0.999997079372406,
                -1.0,
                -1.0,
                -1.0
            ],
            "type" : "VEC4"
        },
        {
            "bufferView" : 4,
            "componentType" : 5126,
            "count" : 4606,
            "max" : [
                1.273396611213684,
                1.0305997543036938
            ],
            "min" : [
                1.312873276759774e-08,
                5.960464477539063e-08
            ],
            "type" : "VEC2"
        }
    ],
    "asset" : {
        "copyright" : "Dodecha",
        "generator" : "Khronos Blender glTF 2.0 exporter",
        "version" : "2.0"
    },
    "bufferViews" : [
        {
            "buffer" : 0,
            "byteLength" : 13824,
            "byteOffset" : 0,
            "target" : 34963
        },
        {
            "buffer" : 0,
            "byteLength" : 55272,
            "byteOffset" : 13824,
            "target" : 34962
        },
        {
            "buffer" : 0,
            "byteLength" : 55272,
            "byteOffset" : 69096,
            "target" : 34962
        },
        {
            "buffer" : 0,
            "byteLength" : 73696,
            "byteOffset" : 124368,
            "target" : 34962
        },
        {
            "buffer" : 0,
            "byteLength" : 36848,
            "byteOffset" : 198064,
            "target" : 34962
        }
    ],
    "buffers" : [
        {
            "byteLength" : 234912,
            "uri" : "tanker-sola.bin"
        }
    ],
    "images" : [
        {
            "mimeType" : "image/png",
            "name" : "tanker-uvmap",
            "uri" : "data:image/png;base64,"
        }
    ],
    "materials" : [
        {
            "alphaMode" : "BLEND",
            "name" : "Material.001",
            "pbrMetallicRoughness" : {
                "baseColorTexture" : {
                    "index" : 0
                }
            }
        }
    ],
    "meshes" : [
        {
            "name" : "Cube",
            "primitives" : [
                {
                    "attributes" : {
                        "NORMAL" : 2,
                        "POSITION" : 1,
                        "TANGENT" : 3,
                        "TEXCOORD_0" : 4
                    },
                    "indices" : 0,
                    "material" : 0
                }
            ]
        }
    ],
    "nodes" : [
        {
            "name" : "Camera",
            "rotation" : [
                0.483536034822464,
                0.33687159419059753,
                -0.20870360732078552,
                0.7804827094078064
            ],
            "translation" : [
                7.481131553649902,
                5.34366512298584,
                6.5076398849487305
            ]
        },
        {
            "mesh" : 0,
            "name" : "Cube"
        }
    ],
    "samplers" : [
        {}
    ],
    "scene" : 0,
    "scenes" : [
        {
            "name" : "Scene",
            "nodes" : [
                1,
                0
            ]
        }
    ],
    "textures" : [
        {
            "sampler" : 0,
            "source" : 0
        }
    ]
}
